<svg width="393" height="44" viewBox="0 0 393 44" fill="none" xmlns="http://www.w3.org/2000/svg">
<g filter="url(#filter0_b_5_647)">
<g filter="url(#filter1_b_5_647)">
<path d="M32.5537 30H34.4834V27.8359H36.0069V26.1719H34.4834V18.7266H31.6397C30.1084 21.0547 28.5069 23.6484 27.0459 26.1875V27.8359H32.5537V30ZM28.9131 26.1016C30.0147 24.1875 31.3194 22.1016 32.4756 20.3359H32.585V26.2188H28.9131V26.1016ZM39.2259 22.7031C39.9681 22.7031 40.4759 22.1875 40.4759 21.4922C40.4759 20.7969 39.9681 20.2812 39.2259 20.2812C38.4916 20.2812 37.9759 20.7969 37.9759 21.4922C37.9759 22.1875 38.4916 22.7031 39.2259 22.7031ZM39.2259 28.4375C39.9681 28.4375 40.4759 27.9141 40.4759 27.2266C40.4759 26.5312 39.9681 26.0156 39.2259 26.0156C38.4916 26.0156 37.9759 26.5312 37.9759 27.2266C37.9759 27.9141 38.4916 28.4375 39.2259 28.4375ZM42.6716 22.0625H44.5622C44.5622 20.875 45.3434 20.0625 46.57 20.0625C47.7497 20.0625 48.4528 20.8516 48.4528 21.875C48.4528 22.7344 48.1091 23.2734 46.6872 24.7109L42.7809 28.6406V30H50.6091V28.3281H45.5153V28.1953L47.9372 25.8125C49.8747 23.9141 50.445 23 50.445 21.6875C50.445 19.8125 48.9216 18.4453 46.6794 18.4453C44.3278 18.4453 42.6716 19.9297 42.6716 22.0625ZM56.6797 30.2812C59.375 30.2812 60.9766 28.1016 60.9766 24.3672C60.9766 20.625 59.3516 18.4453 56.6797 18.4453C54 18.4453 52.375 20.625 52.375 24.3516C52.375 28.0938 53.9766 30.2812 56.6797 30.2812ZM56.6797 28.6484C55.25 28.6484 54.4141 27.1641 54.4141 24.3516C54.4141 21.5625 55.2656 20.0859 56.6797 20.0859C58.0938 20.0859 58.9375 21.5547 58.9375 24.3516C58.9375 27.1719 58.1094 28.6484 56.6797 28.6484Z" fill="white"/>
<path d="M67.2412 24.7129L71.0171 24.7236C71.103 24.7236 71.1353 24.7559 71.1353 24.8418L71.146 28.6177C71.146 29.3213 71.3555 29.9014 71.9624 29.9014C72.4727 29.9014 72.7627 29.4341 73.0098 28.9023L77.0488 20.126C77.1724 19.8628 77.2422 19.6211 77.2422 19.4116C77.2422 18.9604 76.8931 18.6167 76.4473 18.6167C76.2378 18.6167 75.9961 18.6865 75.7275 18.8101L66.9565 22.8438C66.4409 23.0801 65.9521 23.3755 65.9521 23.8911C65.9521 24.4927 66.5161 24.7129 67.2412 24.7129Z" fill="white"/>
</g>
<g filter="url(#filter2_b_5_647)">
<g clip-path="url(#clip0_5_647)">
<rect opacity="0.2" x="320.5" y="19" width="3.5" height="11.5" rx="1" fill="white"/>
<path d="M315.5 22.5C315.5 21.9477 315.948 21.5 316.5 21.5H318C318.552 21.5 319 21.9477 319 22.5V29.5C319 30.0523 318.552 30.5 318 30.5H316.5C315.948 30.5 315.5 30.0523 315.5 29.5V22.5Z" fill="white"/>
<path d="M310.5 25C310.5 24.4477 310.948 24 311.5 24H313C313.552 24 314 24.4477 314 25V29.5C314 30.0523 313.552 30.5 313 30.5H311.5C310.948 30.5 310.5 30.0523 310.5 29.5V25Z" fill="white"/>
<path d="M305.5 27C305.5 26.4477 305.948 26 306.5 26H308C308.552 26 309 26.4477 309 27V29.5C309 30.0523 308.552 30.5 308 30.5H306.5C305.948 30.5 305.5 30.0523 305.5 29.5V27Z" fill="white"/>
<path d="M339.326 28.2888C339.391 28.2252 339.427 28.1378 339.425 28.047C339.423 27.9563 339.384 27.8704 339.317 27.8095C337.98 26.6781 336.023 26.6781 334.687 27.8095C334.619 27.8703 334.58 27.9562 334.578 28.047C334.576 28.1377 334.612 28.2252 334.676 28.2888L336.769 30.4026C336.831 30.4648 336.914 30.4997 337.002 30.4997C337.089 30.4997 337.172 30.4648 337.234 30.4026L339.326 28.2888Z" fill="white"/>
<path d="M336.999 25.3665C338.275 25.3665 339.505 25.841 340.45 26.6981C340.578 26.8197 340.78 26.817 340.904 26.6921L342.114 25.4686C342.178 25.4044 342.213 25.3174 342.212 25.2269C342.211 25.1364 342.174 25.0501 342.109 24.9872C339.23 22.3063 334.771 22.3063 331.892 24.9872C331.827 25.0501 331.79 25.1365 331.789 25.227C331.788 25.3175 331.824 25.4045 331.888 25.4686L333.097 26.6921C333.222 26.817 333.423 26.8197 333.551 26.6981C334.496 25.8416 335.725 25.3671 336.999 25.3665Z" fill="white"/>
<path opacity="0.2" d="M337 21.3883C339.322 21.3884 341.555 22.2813 343.237 23.8825C343.364 24.0061 343.566 24.0045 343.691 23.879L344.902 22.6555C344.965 22.5918 345.001 22.5055 345 22.4158C344.999 22.326 344.963 22.2402 344.899 22.1772C340.483 17.9409 333.517 17.9409 329.101 22.1772C329.037 22.2401 329.001 22.326 329 22.4157C328.999 22.5055 329.035 22.5917 329.098 22.6555L330.309 23.879C330.434 24.0047 330.637 24.0063 330.763 23.8825C332.446 22.2812 334.679 21.3883 337 21.3883Z" fill="white"/>
<g clip-path="url(#clip1_5_647)">
<path d="M351 21.75C351 21.0596 351.56 20.5 352.25 20.5H353V29H352.25C351.56 29 351 28.4404 351 27.75V21.75Z" fill="white"/>
<path d="M353 20.5H355V29H353V20.5Z" fill="white"/>
<path d="M355 20.5H357V29H355V20.5Z" fill="white"/>
<path d="M357 20.5H359V29H357V20.5Z" fill="white"/>
<path d="M359 20.5H361V29H359V20.5Z" fill="white"/>
<path d="M361 20.5H363V29H361V20.5Z" fill="white"/>
<path d="M363 20.5H365V29H363V20.5Z" fill="white"/>
<path d="M367 21.75C367 21.0596 366.44 20.5 365.75 20.5H365V29H365.75C366.44 29 367 28.4404 367 27.75V21.75Z" fill="white"/>
</g>
<g opacity="0.5">
<path fill-rule="evenodd" clip-rule="evenodd" d="M349 21.5C349 19.8431 350.343 18.5 352 18.5H370C371.657 18.5 373 19.8431 373 21.5V28C373 29.6569 371.657 31 370 31H352C350.343 31 349 29.6569 349 28V21.5ZM352 19.5C350.895 19.5 350 20.3954 350 21.5V28C350 29.1046 350.895 30 352 30H370C371.105 30 372 29.1046 372 28V21.5C372 20.3954 371.105 19.5 370 19.5H352Z" fill="white"/>
<path d="M374 27.042C374.883 26.6562 375.5 25.7751 375.5 24.75C375.5 23.7248 374.883 22.8438 374 22.458V27.042Z" fill="white"/>
</g>
</g>
</g>
</g>
<defs>
<filter id="filter0_b_5_647" x="-30" y="-30" width="453" height="104" filterUnits="userSpaceOnUse" color-interpolation-filters="sRGB">
<feFlood flood-opacity="0" result="BackgroundImageFix"/>
<feGaussianBlur in="BackgroundImageFix" stdDeviation="15"/>
<feComposite in2="SourceAlpha" operator="in" result="effect1_backgroundBlur_5_647"/>
<feBlend mode="normal" in="SourceGraphic" in2="effect1_backgroundBlur_5_647" result="shape"/>
</filter>
<filter id="filter1_b_5_647" x="-56" y="-56" width="208" height="156" filterUnits="userSpaceOnUse" color-interpolation-filters="sRGB">
<feFlood flood-opacity="0" result="BackgroundImageFix"/>
<feGaussianBlur in="BackgroundImageFix" stdDeviation="28"/>
<feComposite in2="SourceAlpha" operator="in" result="effect1_backgroundBlur_5_647"/>
<feBlend mode="normal" in="SourceGraphic" in2="effect1_backgroundBlur_5_647" result="shape"/>
</filter>
<filter id="filter2_b_5_647" x="241" y="-56" width="208" height="156" filterUnits="userSpaceOnUse" color-interpolation-filters="sRGB">
<feFlood flood-opacity="0" result="BackgroundImageFix"/>
<feGaussianBlur in="BackgroundImageFix" stdDeviation="28"/>
<feComposite in2="SourceAlpha" operator="in" result="effect1_backgroundBlur_5_647"/>
<feBlend mode="normal" in="SourceGraphic" in2="effect1_backgroundBlur_5_647" result="shape"/>
</filter>
<clipPath id="clip0_5_647">
<rect width="72" height="16" fill="white" transform="translate(305 16)"/>
</clipPath>
<clipPath id="clip1_5_647">
<rect width="16" height="8.5" fill="white" transform="translate(351 20.5)"/>
</clipPath>
</defs>
</svg>
