<svg width="26" height="10" viewBox="0 0 26 10" fill="none" xmlns="http://www.w3.org/2000/svg">
<path fill-rule="evenodd" clip-rule="evenodd" d="M4.18159 1.8554C4.63278 1.89346 5.08396 1.62704 5.36594 1.28926C5.64323 0.941972 5.82652 0.475744 5.77953 0C5.38004 0.0190297 4.88656 0.266416 4.60458 0.613709C4.34609 0.913428 4.1252 1.39869 4.18159 1.8554ZM9.54875 7.98325V0.566412H12.2981C13.7175 0.566412 14.7091 1.55596 14.7091 3.00222C14.7091 4.44848 13.6987 5.44754 12.2605 5.44754H10.6861V7.98325H9.54875ZM5.77389 1.94626C5.37641 1.9231 5.01372 2.06726 4.72077 2.18371C4.53225 2.25864 4.37261 2.3221 4.25116 2.3221C4.11486 2.3221 3.94863 2.25525 3.76198 2.18019C3.51742 2.08184 3.23782 1.96941 2.94461 1.9748C2.27254 1.98432 1.64746 2.36967 1.30438 2.98338C0.599409 4.2108 1.12109 6.02814 1.80256 7.0272C2.13624 7.52197 2.53573 8.06432 3.06211 8.04529C3.29368 8.03644 3.46026 7.96489 3.63266 7.89084C3.83113 7.80559 4.03731 7.71702 4.35925 7.71702C4.67003 7.71702 4.86719 7.80328 5.05646 7.88608C5.23642 7.96481 5.40924 8.04041 5.6658 8.03577C6.21097 8.02626 6.55406 7.541 6.88775 7.04623C7.24785 6.5152 7.4061 5.99694 7.43011 5.9183L7.43292 5.9092C7.43235 5.90862 7.42793 5.90657 7.42014 5.90296L7.42012 5.90295L7.42006 5.90292L7.42005 5.90292C7.29967 5.84713 6.37959 5.42076 6.37077 4.2774C6.36191 3.31772 7.10055 2.83148 7.21683 2.75494C7.2239 2.75029 7.22867 2.74714 7.23083 2.74551C6.76085 2.04141 6.02768 1.96529 5.77389 1.94626ZM16.7852 8.04006C17.4996 8.04006 18.1623 7.67373 18.463 7.09333H18.4865V7.98297H19.5393V4.2912C19.5393 3.22078 18.6933 2.53095 17.3915 2.53095C16.1836 2.53095 15.2907 3.23029 15.2578 4.19129H16.2823C16.3669 3.73458 16.7852 3.43486 17.3586 3.43486C18.0542 3.43486 18.4442 3.76312 18.4442 4.36732V4.77646L17.0249 4.86209C15.7043 4.94297 14.9899 5.49007 14.9899 6.44156C14.9899 7.40256 15.7278 8.04006 16.7852 8.04006ZM17.0908 7.16023C16.4845 7.16023 16.0991 6.86527 16.0991 6.41331C16.0991 5.94709 16.4704 5.67591 17.1801 5.6331L18.4443 5.55222V5.97087C18.4443 6.66546 17.8615 7.16023 17.0908 7.16023ZM23.0312 8.27302C22.5753 9.5718 22.0536 9.99996 20.9444 9.99996C20.8598 9.99996 20.5779 9.99045 20.5121 9.97142V9.08178C20.5826 9.0913 20.7565 9.10081 20.8457 9.10081C21.3486 9.10081 21.6306 8.88673 21.8045 8.33011L21.9079 8.00184L19.981 2.60216H21.17L22.5095 6.98375H22.533L23.8724 2.60216H25.0286L23.0312 8.27302ZM10.6856 1.53647H11.9969C12.9838 1.53647 13.5478 2.06931 13.5478 3.00652C13.5478 3.94373 12.9838 4.48132 11.9922 4.48132H10.6856V1.53647Z" fill="white"/>
</svg>
