<svg width="27" height="33" viewBox="0 0 27 33" fill="none" xmlns="http://www.w3.org/2000/svg">
<g id="Apple">
<path id="&#60;Path&#62;" d="M22.2727 17.3528C22.2889 16.1262 22.6226 14.9236 23.2427 13.8568C23.8629 12.79 24.7494 11.8937 25.8197 11.2513C25.1398 10.3032 24.2428 9.52299 23.1999 8.97258C22.1571 8.42218 20.9972 8.11675 19.8123 8.08055C17.2847 7.82153 14.8344 9.55716 13.5463 9.55716C12.2334 9.55716 10.2503 8.10627 8.11488 8.14916C6.73361 8.19273 5.38746 8.58487 4.20758 9.28738C3.0277 9.9899 2.05433 10.9788 1.38231 12.1578C-1.52864 17.0783 0.642673 24.3098 3.43118 28.2873C4.82633 30.2349 6.45685 32.4104 8.59039 32.3333C10.6782 32.2487 11.4579 31.0335 13.978 31.0335C16.4748 31.0335 17.2063 32.3333 19.3832 32.2842C21.6235 32.2487 23.0349 30.3279 24.3812 28.3619C25.3836 26.9741 26.1549 25.4404 26.6667 23.8174C25.3651 23.28 24.2544 22.3804 23.473 21.2308C22.6917 20.0812 22.2742 18.7324 22.2727 17.3528Z" fill="white"/>
<path id="&#60;Path&#62;_2" d="M18.1611 5.46447C19.3826 4.03286 19.9844 2.19277 19.8386 0.334961C17.9725 0.52632 16.2486 1.39709 15.0106 2.77377C14.4053 3.44631 13.9417 4.22873 13.6464 5.0763C13.351 5.92387 13.2296 6.81997 13.2891 7.71336C14.2226 7.72274 15.146 7.52522 15.9899 7.13568C16.8338 6.74613 17.5761 6.17472 18.1611 5.46447Z" fill="white"/>
</g>
</svg>
