<svg width="28" height="33" viewBox="0 0 28 33" fill="none" xmlns="http://www.w3.org/2000/svg">
<path d="M22.9406 17.0676C22.9568 15.8411 23.2905 14.6385 23.9107 13.5717C24.5309 12.5049 25.4174 11.6086 26.4877 10.9661C25.8078 10.0181 24.9107 9.23783 23.8679 8.68743C22.8251 8.13702 21.6652 7.83159 20.4803 7.7954C17.9527 7.53637 15.5023 9.27201 14.2143 9.27201C12.9014 9.27201 10.9183 7.82112 8.78285 7.86401C7.40158 7.90757 6.05543 8.29972 4.87555 9.00223C3.69566 9.70474 2.7223 10.6937 2.05028 11.8726C-0.860673 16.7931 1.31064 24.0247 4.09914 28.0021C5.4943 29.9497 7.12482 32.1252 9.25836 32.0481C11.3461 31.9635 12.1259 30.7483 14.646 30.7483C17.1428 30.7483 17.8743 32.0481 20.0511 31.999C22.2914 31.9635 23.7029 30.0428 25.0491 28.0767C26.0516 26.689 26.8229 25.1552 27.3346 23.5323C26.0331 22.9948 24.9224 22.0952 24.141 20.9456C23.3596 19.796 22.9422 18.4473 22.9406 17.0676Z" fill="#000A1E"/>
<path d="M18.8281 5.17931C20.0496 3.7477 20.6514 1.90761 20.5056 0.0498047C18.6395 0.241164 16.9156 1.11193 15.6776 2.48861C15.0723 3.16116 14.6087 3.94358 14.3134 4.79115C14.018 5.63871 13.8966 6.53481 13.9561 7.42821C14.8896 7.43759 15.813 7.24007 16.6569 6.85052C17.5008 6.46097 18.2431 5.88956 18.8281 5.17931Z" fill="#000A1E"/>
</svg>
