<svg width="20" height="20" viewBox="0 0 20 20" fill="none" xmlns="http://www.w3.org/2000/svg">
<circle cx="10" cy="10" r="10" fill="#F3BA2F"/>
<path d="M7.87851 9.17723L10.0812 6.97464L12.2849 9.17837L13.5666 7.8967L10.0812 4.41113L6.5969 7.89556L7.87851 9.17723ZM4.41016 10.082L5.69186 8.80034L6.97348 10.082L5.69179 11.3637L4.41016 10.082ZM7.87851 10.9872L10.0812 13.1898L12.2849 10.9861L13.5672 12.2671L13.5666 12.2678L10.0812 15.7533L6.59678 12.269L6.59497 12.2672L7.87851 10.9872ZM13.189 10.0828L14.4708 8.80105L15.7524 10.0827L14.4707 11.3644L13.189 10.0828Z" fill="white"/>
<path d="M11.3824 10.0818H11.383L10.0824 8.78125L9.12129 9.74239H9.12123L9.01082 9.85286L8.78306 10.0807L8.78125 10.0824L8.78306 10.0843L10.0824 11.3837L11.383 10.0832L11.3836 10.0824L11.3824 10.0818Z" fill="white"/>
</svg>
