<svg width="26" height="10" viewBox="0 0 26 10" fill="none" xmlns="http://www.w3.org/2000/svg">
<path fill-rule="evenodd" clip-rule="evenodd" d="M12.0574 7.82264V4.88803H13.572C14.1926 4.88803 14.7165 4.68007 15.1435 4.26991L15.246 4.16593C16.0261 3.31675 15.9748 1.99386 15.1435 1.20822C14.7279 0.792289 14.1585 0.566995 13.572 0.578548H11.1406V7.82264H12.0574ZM12.0569 3.99822V1.46799H13.5946C13.9249 1.46799 14.2381 1.59508 14.4716 1.82615C14.967 2.3114 14.9784 3.12015 14.5001 3.62273C14.2666 3.87113 13.9363 4.00977 13.5946 3.99822H12.0569ZM19.5215 3.25291C19.1287 2.88897 18.5934 2.70412 17.9158 2.70412C17.0446 2.70412 16.3898 3.02762 15.9571 3.66884L16.7656 4.18297C17.0617 3.74394 17.466 3.52442 17.9785 3.52442C18.303 3.52442 18.6162 3.64573 18.861 3.86525C19.1002 4.07321 19.2368 4.37361 19.2368 4.69133V4.90507C18.8838 4.70866 18.4397 4.60468 17.8931 4.60468C17.2553 4.60468 16.7429 4.75487 16.3614 5.06104C15.9799 5.36721 15.7863 5.77159 15.7863 6.28572C15.7749 6.75364 15.9742 7.19846 16.3272 7.49885C16.6859 7.82235 17.1414 7.9841 17.6767 7.9841C18.3087 7.9841 18.8098 7.70104 19.1913 7.13491H19.2312V7.82235H20.108V4.76643C20.108 4.1252 19.9144 3.61685 19.5215 3.25291ZM17.0324 6.90914C16.8445 6.7705 16.7306 6.54521 16.7306 6.30258C16.7306 6.03107 16.8559 5.80578 17.1008 5.6267C17.3513 5.44762 17.6646 5.35519 18.0347 5.35519C18.5473 5.34941 18.9459 5.46495 19.2307 5.69602C19.2307 6.08884 19.0769 6.42967 18.7751 6.71851C18.5017 6.9958 18.1315 7.15177 17.7443 7.15177C17.488 7.15755 17.2374 7.07089 17.0324 6.90914ZM22.0775 10.0002L25.1409 2.86591H24.1444L22.7266 6.42441H22.7095L21.2576 2.86591H20.2611L22.2711 7.50467L21.1323 10.0002H22.0775Z" fill="white"/>
<path d="M8.8916 4.25259C8.8916 3.96953 8.86882 3.68647 8.82327 3.40918H4.95703V5.00935H7.172C7.0809 5.52348 6.78481 5.98563 6.35207 6.27447V7.31429H7.67308C8.44747 6.59219 8.8916 5.52348 8.8916 4.25259Z" fill="#4285F4"/>
<path d="M4.95813 8.31912C6.06277 8.31912 6.99659 7.94941 7.67418 7.31396L6.35317 6.27414C5.98305 6.52832 5.51045 6.67274 4.95813 6.67274C3.88765 6.67274 2.98231 5.93909 2.65775 4.95703H1.29688V6.03151C1.99155 7.43527 3.40936 8.31912 4.95813 8.31912Z" fill="#34A853"/>
<path d="M2.65649 4.95704C2.48564 4.44291 2.48564 3.88256 2.65649 3.36265V2.29395H1.2954C0.708824 3.46663 0.708824 4.85306 1.2954 6.02575L2.65649 4.95704Z" fill="#FBBC04"/>
<path d="M4.95813 1.64664C5.54461 1.63508 6.10832 1.86038 6.52968 2.27053L7.70265 1.08051C6.95673 0.375743 5.97736 -0.0113022 4.95813 0.000251411C3.40936 0.000251411 1.99155 0.889877 1.29688 2.29364L2.65775 3.36812C2.98231 2.38029 3.88765 1.64664 4.95813 1.64664Z" fill="#EA4335"/>
</svg>
