<svg width="20" height="14" viewBox="0 0 20 14" fill="none" xmlns="http://www.w3.org/2000/svg">
<path fill-rule="evenodd" clip-rule="evenodd" d="M9.99993 11.6709C8.94077 12.5848 7.56692 13.1365 6.06569 13.1365C2.7157 13.1365 0 10.3892 0 7.00037C0 3.61149 2.7157 0.864258 6.06569 0.864258C7.56692 0.864258 8.94077 1.41596 9.99993 2.32986C11.0591 1.41596 12.4329 0.864258 13.9342 0.864258C17.2842 0.864258 19.9999 3.61149 19.9999 7.00037C19.9999 10.3892 17.2842 13.1365 13.9342 13.1365C12.4329 13.1365 11.0591 12.5848 9.99993 11.6709Z" fill="#ED0006"/>
<path fill-rule="evenodd" clip-rule="evenodd" d="M10 11.6709C11.3044 10.5454 12.1315 8.87059 12.1315 7.00037C12.1315 5.13014 11.3044 3.45534 10 2.32986C11.0592 1.41595 12.433 0.864258 13.9342 0.864258C17.2842 0.864258 19.9999 3.61149 19.9999 7.00037C19.9999 10.3892 17.2842 13.1365 13.9342 13.1365C12.433 13.1365 11.0592 12.5848 10 11.6709Z" fill="#F9A000"/>
<path fill-rule="evenodd" clip-rule="evenodd" d="M9.99865 11.6711C11.303 10.5456 12.1301 8.87081 12.1301 7.00058C12.1301 5.13036 11.303 3.45556 9.99865 2.33008C8.69429 3.45556 7.86719 5.13036 7.86719 7.00058C7.86719 8.87081 8.69429 10.5456 9.99865 11.6711Z" fill="#FF5E00"/>
</svg>
