<svg width="29" height="33" viewBox="0 0 29 33" fill="none" xmlns="http://www.w3.org/2000/svg">
<path d="M13.4107 15.332L0.457031 29.391C0.458248 29.3935 0.458248 29.3973 0.459464 29.3997C0.857307 30.9263 2.21995 32.0498 3.83809 32.0498C4.48534 32.0498 5.09245 31.8706 5.61317 31.5571L5.65454 31.5322L20.2348 22.9289L13.4107 15.332Z" fill="#EA4335"/>
<path d="M26.5122 12.9379L26.5 12.9292L20.2051 9.19795L13.1133 15.6514L20.2307 22.9272L26.4915 19.2333C27.5889 18.6262 28.3347 17.443 28.3347 16.0794C28.3347 14.7233 27.5999 13.5463 26.5122 12.9379Z" fill="#FBBC04"/>
<path d="M0.455169 2.70715C0.377303 3.00077 0.335938 3.30932 0.335938 3.62782V28.4712C0.335938 28.7897 0.377303 29.0982 0.456385 29.3906L13.8541 15.6912L0.455169 2.70715Z" fill="#4285F4"/>
<path d="M13.5029 16.0498L20.2066 9.19573L5.64333 0.561269C5.11409 0.236544 4.49604 0.049921 3.8354 0.049921C2.21726 0.049921 0.852184 1.17588 0.454341 2.70371C0.454341 2.70496 0.453125 2.7062 0.453125 2.70744L13.5029 16.0498Z" fill="#34A853"/>
</svg>
