<svg width="20" height="20" viewBox="0 0 20 20" fill="none" xmlns="http://www.w3.org/2000/svg">
<path fill-rule="evenodd" clip-rule="evenodd" d="M9.99951 20C15.5221 20 19.999 15.5228 19.999 10C19.999 4.47715 15.5221 0 9.99951 0C4.47693 0 0 4.47715 0 10C0 15.5228 4.47693 20 9.99951 20Z" fill="#50AF95"/>
<path fill-rule="evenodd" clip-rule="evenodd" d="M11.2008 10.6056C11.136 10.6105 10.8012 10.6304 10.0546 10.6304C9.4607 10.6304 9.03905 10.6126 8.89112 10.6056C6.59604 10.5046 4.88297 10.1051 4.88297 9.62677C4.88297 9.14843 6.59604 8.74945 8.89112 8.64687V10.2077C9.04121 10.2185 9.47096 10.2439 10.0648 10.2439C10.7775 10.2439 11.1344 10.2142 11.1986 10.2082V8.64795C13.4888 8.74999 15.1981 9.14951 15.1981 9.62677C15.1981 10.104 13.4894 10.5036 11.1986 10.6051L11.2008 10.6056ZM11.2008 8.48652V7.08983H14.3969V4.95996H5.69497V7.08983H8.89058V8.48598C6.29317 8.6053 4.33984 9.11981 4.33984 9.73637C4.33984 10.3529 6.29317 10.8669 8.89058 10.9868V15.4624H11.2002V10.9851C13.7917 10.8658 15.7418 10.3518 15.7418 9.73583C15.7418 9.11981 13.7933 8.60584 11.2002 8.48598L11.2008 8.48652Z" fill="white"/>
</svg>
