<svg width="26" height="8" viewBox="0 0 26 8" fill="none" xmlns="http://www.w3.org/2000/svg">
<path fill-rule="evenodd" clip-rule="evenodd" d="M6.73568 7.93746H4.56632L2.93956 1.73129C2.86235 1.4458 2.6984 1.19342 2.45724 1.07447C1.85541 0.775538 1.19222 0.537635 0.46875 0.417649V0.178711H3.96342C4.44574 0.178711 4.80748 0.537635 4.86777 0.954482L5.71182 5.4312L7.88012 0.178711H9.9892L6.73568 7.93746ZM11.194 7.93746H9.14518L10.8322 0.178711H12.881L11.194 7.93746ZM15.5319 2.32835C15.5922 1.91047 15.9539 1.67153 16.3759 1.67153C17.0391 1.61154 17.7615 1.73152 18.3644 2.02942L18.7262 0.358924C18.1233 0.119986 17.4601 0 16.8583 0C14.8698 0 13.4228 1.0747 13.4228 2.56625C13.4228 3.70095 14.4477 4.29674 15.1712 4.65566C15.9539 5.01355 16.2554 5.25249 16.1951 5.61038C16.1951 6.14721 15.5922 6.38615 14.9903 6.38615C14.2669 6.38615 13.5434 6.20721 12.8813 5.90828L12.5195 7.57981C13.243 7.8777 14.0257 7.99769 14.7492 7.99769C16.9788 8.05665 18.3644 6.98298 18.3644 5.37144C18.3644 3.34202 15.5319 3.22307 15.5319 2.32835V2.32835ZM25.5345 7.93746L23.9078 0.178711H22.1604C21.7987 0.178711 21.437 0.417649 21.3164 0.775538L18.304 7.93746H20.4131L20.8341 6.8038H23.4255L23.6666 7.93746H25.5345ZM22.4622 2.26855L23.064 5.1927H21.377L22.4622 2.26855Z" fill="white"/>
</svg>
