<svg width="33" height="33" viewBox="0 0 33 33" fill="none" xmlns="http://www.w3.org/2000/svg">
<rect x="0.635742" y="0.214973" width="31.9998" height="32" rx="15.9999" fill="white"/>
<g clip-path="url(#clip0_41_1942)">
<path d="M22.1893 11.0333C21.1536 10.5487 20.0461 10.1965 18.8883 9.99599C18.7462 10.2531 18.58 10.5988 18.4655 10.8739C17.2347 10.6888 16.0153 10.6888 14.8072 10.8739C14.6927 10.5988 14.5228 10.2531 14.3793 9.99599C13.2203 10.1965 12.1116 10.55 11.0759 11.0358C8.98684 14.1927 8.42053 17.271 8.70369 20.3057C10.0892 21.3404 11.432 21.969 12.7521 22.3803C13.0781 21.9317 13.3688 21.4548 13.6192 20.9523C13.1422 20.771 12.6854 20.5474 12.2538 20.2877C12.3683 20.2029 12.4803 20.1142 12.5885 20.0229C15.2212 21.2543 18.0817 21.2543 20.6829 20.0229C20.7924 20.1142 20.9044 20.2029 21.0176 20.2877C20.5847 20.5487 20.1267 20.7723 19.6497 20.9536C19.9001 21.4548 20.1896 21.933 20.5168 22.3815C21.8382 21.9702 23.1822 21.3417 24.5677 20.3057C24.9 16.7878 24.0002 13.7376 22.1893 11.0333ZM13.9779 18.4394C13.1876 18.4394 12.5394 17.7016 12.5394 16.8032C12.5394 15.9047 13.1737 15.1657 13.9779 15.1657C14.782 15.1657 15.4301 15.9034 15.4163 16.8032C15.4175 17.7016 14.782 18.4394 13.9779 18.4394ZM19.2936 18.4394C18.5033 18.4394 17.8552 17.7016 17.8552 16.8032C17.8552 15.9047 18.4894 15.1657 19.2936 15.1657C20.0977 15.1657 20.7458 15.9034 20.732 16.8032C20.732 17.7016 20.0977 18.4394 19.2936 18.4394Z" fill="#000A1E"/>
</g>
<defs>
<clipPath id="clip0_41_1942">
<rect width="16" height="16" fill="white" transform="translate(8.63574 8.21486)"/>
</clipPath>
</defs>
</svg>
