<svg width="33" height="33" viewBox="0 0 33 33" fill="none" xmlns="http://www.w3.org/2000/svg">
<rect x="0.544922" y="0.214973" width="31.9998" height="32" rx="15.9999" fill="white"/>
<path d="M21.5449 8.66441C21.5449 8.54658 21.497 8.43357 21.4118 8.35025C21.3265 8.26692 21.2109 8.22011 21.0904 8.22011H18.8176C17.6732 8.16439 16.5527 8.55368 15.701 9.30294C14.8493 10.0522 14.3356 11.1005 14.2722 12.2188V14.618H11.9995C11.8789 14.618 11.7633 14.6648 11.6781 14.7481C11.5928 14.8315 11.5449 14.9445 11.5449 15.0623V17.3727C11.5449 17.4905 11.5928 17.6035 11.6781 17.6868C11.7633 17.7702 11.8789 17.817 11.9995 17.817H14.2722V23.7706C14.2722 23.8884 14.3201 24.0014 14.4053 24.0847C14.4906 24.168 14.6062 24.2149 14.7267 24.2149H17.454C17.5746 24.2149 17.6902 24.168 17.7754 24.0847C17.8607 24.0014 17.9086 23.8884 17.9086 23.7706V17.817H20.2904C20.3915 17.8184 20.4901 17.7868 20.5708 17.7273C20.6515 17.6677 20.7096 17.5836 20.7358 17.4882L21.3904 15.1778C21.4085 15.1122 21.4109 15.0434 21.3975 14.9766C21.3841 14.9099 21.3552 14.8471 21.313 14.793C21.2709 14.739 21.2166 14.6951 21.1543 14.6647C21.0921 14.6344 21.0236 14.6184 20.954 14.618H17.9086V12.2188C17.9312 11.9989 18.0368 11.795 18.2049 11.6472C18.373 11.4993 18.5915 11.418 18.8176 11.4191H21.0904C21.2109 11.4191 21.3265 11.3723 21.4118 11.2889C21.497 11.2056 21.5449 11.0926 21.5449 10.9748V8.66441Z" fill="#000A1E"/>
</svg>
