<svg width="33" height="33" viewBox="0 0 33 33" fill="none" xmlns="http://www.w3.org/2000/svg">
<rect x="0.362305" y="0.214973" width="31.9998" height="32" rx="15.9999" fill="white"/>
<path d="M21.6938 11.8014C21.6938 12.3307 21.2648 12.7599 20.7354 12.7599C20.206 12.7599 19.7769 12.3307 19.7769 11.8014C19.7769 11.2721 20.206 10.8429 20.7354 10.8429C21.2648 10.8429 21.6938 11.2721 21.6938 11.8014ZM20.5004 16.0982C20.5004 18.3182 18.6942 20.1244 16.4744 20.1244C14.2544 20.1244 12.4481 18.3182 12.4481 16.0982C12.4481 13.8783 14.2544 12.0722 16.4744 12.0722C18.6942 12.0722 20.5004 13.8783 20.5004 16.0982ZM19.0534 16.0982C19.0534 14.6762 17.8963 13.5191 16.4744 13.5191C15.0523 13.5191 13.8953 14.6762 13.8953 16.0982C13.8953 17.5204 15.0523 18.6773 16.4744 18.6773C17.8963 18.6773 19.0534 17.5204 19.0534 16.0982ZM24.6233 12.8638C24.6233 10.1518 22.4246 7.95314 19.7124 7.95314H13.0114C10.2993 7.95314 8.10059 10.1518 8.10059 12.8638V19.5653C8.10059 22.2773 10.2993 24.4759 13.0114 24.4759H19.7124C22.4246 24.4759 24.6233 22.2773 24.6233 19.5653V12.8638ZM23.0112 19.4913C23.0112 21.3539 21.5011 22.864 19.6385 22.864H13.0854C11.2225 22.864 9.71254 21.3539 9.71254 19.4913V12.9377C9.71254 11.0751 11.2225 9.5651 13.0854 9.5651H19.6385C21.5011 9.5651 23.0112 11.0751 23.0112 12.9377V19.4913Z" fill="#000A1E"/>
</svg>
