<svg width="32" height="32" viewBox="0 0 32 32" fill="none" xmlns="http://www.w3.org/2000/svg">
<rect width="31.9998" height="32" rx="15.9999" fill="white"/>
<path d="M15.7715 13.5315C16.6099 12.6747 17.7015 12.1143 18.9715 12.1143C20.3051 12.1143 21.5841 12.6441 22.5272 13.5871C23.4703 14.5301 24 15.8092 24 17.1428V24H22.1715V17.1428C22.1715 16.2941 21.8343 15.4803 21.2341 14.8801C20.634 14.28 19.8201 13.9428 18.9715 13.9428C18.1228 13.9428 17.3088 14.28 16.7087 14.8801C16.1085 15.4803 15.7715 16.2941 15.7715 17.1428V24H13.9428V12.5714H15.7715V13.5315ZM9.37143 10.7429C9.00771 10.7429 8.65888 10.5984 8.40168 10.3412C8.14449 10.084 8 9.73516 8 9.37143C8 9.00771 8.14449 8.65888 8.40168 8.40168C8.65888 8.14449 9.00771 8 9.37143 8C9.73516 8 10.084 8.14449 10.3412 8.40168C10.5984 8.65888 10.7429 9.00771 10.7429 9.37143C10.7429 9.73516 10.5984 10.084 10.3412 10.3412C10.084 10.5984 9.73516 10.7429 9.37143 10.7429ZM8.45715 12.5714H10.2857V24H8.45715V12.5714Z" fill="#000A1E"/>
<path d="M15.7715 13.5315C16.6099 12.6747 17.7015 12.1143 18.9715 12.1143C20.3051 12.1143 21.5841 12.6441 22.5272 13.5871C23.4703 14.5301 24 15.8092 24 17.1428V24H22.1715V17.1428C22.1715 16.2941 21.8343 15.4803 21.2341 14.8801C20.634 14.28 19.8201 13.9428 18.9715 13.9428C18.1228 13.9428 17.3088 14.28 16.7087 14.8801C16.1085 15.4803 15.7715 16.2941 15.7715 17.1428V24H13.9428V12.5714H15.7715V13.5315ZM9.37143 10.7429C9.00771 10.7429 8.65888 10.5984 8.40168 10.3412C8.14449 10.084 8 9.73516 8 9.37143C8 9.00771 8.14449 8.65888 8.40168 8.40168C8.65888 8.14449 9.00771 8 9.37143 8C9.73516 8 10.084 8.14449 10.3412 8.40168C10.5984 8.65888 10.7429 9.00771 10.7429 9.37143C10.7429 9.73516 10.5984 10.084 10.3412 10.3412C10.084 10.5984 9.73516 10.7429 9.37143 10.7429ZM8.45715 12.5714H10.2857V24H8.45715V12.5714Z" stroke="black"/>
</svg>
