<svg width="32" height="33" viewBox="0 0 32 33" fill="none" xmlns="http://www.w3.org/2000/svg">
<rect y="0.214844" width="31.9998" height="32" rx="15.9999" fill="white"/>
<g clip-path="url(#clip0_41_1926)">
<path d="M11.3498 10.2896C14.6727 10.2896 17.3663 13.002 17.3663 16.3477C17.3663 19.6933 14.6725 22.4055 11.3498 22.4055C8.02699 22.4055 5.33301 19.6933 5.33301 16.3477C5.33301 13.002 8.02678 10.2896 11.3498 10.2896ZM20.9581 10.6445C22.6195 10.6445 23.9664 13.1976 23.9664 16.3477H23.9666C23.9666 19.4969 22.6197 22.0508 20.9583 22.0508C19.2968 22.0508 17.9499 19.4969 17.9499 16.3477C17.9499 13.1985 19.2966 10.6445 20.9581 10.6445ZM25.6083 11.2385C26.1925 11.2385 26.6663 13.5259 26.6663 16.3477C26.6663 19.1686 26.1927 21.4568 25.6083 21.4568C25.0239 21.4568 24.5504 19.1692 24.5504 16.3477C24.5504 13.5261 25.0241 11.2385 25.6083 11.2385Z" fill="#000A1E"/>
</g>
<defs>
<clipPath id="clip0_41_1926">
<rect width="21.3333" height="21.3333" fill="white" transform="translate(5.33301 5.54843)"/>
</clipPath>
</defs>
</svg>
