<svg width="33" height="33" viewBox="0 0 33 33" fill="none" xmlns="http://www.w3.org/2000/svg">
<rect x="0.817383" y="0.214973" width="31.9998" height="32" rx="15.9999" fill="white"/>
<path d="M9.12053 15.949L18.6129 12.038C19.5499 11.6306 22.7276 10.3269 22.7276 10.3269C22.7276 10.3269 24.1942 9.75657 24.072 11.1417C24.0312 11.7121 23.7053 13.7083 23.3794 15.8675L22.3609 22.2637C22.3609 22.2637 22.2794 23.2007 21.5869 23.3636C20.8943 23.5266 19.7536 22.7933 19.5499 22.6303C19.3869 22.5081 16.4944 20.6748 15.4352 19.7785C15.15 19.5341 14.8241 19.0452 15.4759 18.4749C16.9425 17.1305 18.6944 15.4601 19.7536 14.4009C20.2425 13.912 20.7313 12.7713 18.6944 14.1565L12.9501 18.0267C12.9501 18.0267 12.2982 18.4341 11.076 18.0675C9.85384 17.7008 8.42796 17.2119 8.42796 17.2119C8.42796 17.2119 7.4502 16.6008 9.12053 15.949Z" fill="#000A1E"/>
</svg>
