<svg width="143" height="37" viewBox="0 0 143 37" fill="none" xmlns="http://www.w3.org/2000/svg">
<g clip-path="url(#clip0_100_16707)">
<path d="M30.0127 5.19029C27.7193 4.14136 25.2837 3.37688 22.7413 2.9502C22.4213 3.50133 22.0657 4.24802 21.8168 4.83472C19.1127 4.44359 16.4281 4.44359 13.7613 4.83472C13.5124 4.24802 13.1391 3.50133 12.8368 2.9502C10.2767 3.37688 7.84108 4.14136 5.56365 5.19029C0.959013 11.9817 -0.28549 18.6131 0.33676 25.1555C3.39466 27.3778 6.34593 28.7291 9.24562 29.618C9.95676 28.658 10.5968 27.6268 11.1479 26.5423C10.099 26.1512 9.10339 25.6711 8.14335 25.1022C8.39225 24.9245 8.64116 24.7289 8.87228 24.5334C14.6681 27.1824 20.9457 27.1824 26.6703 24.5334C26.9192 24.7289 27.1504 24.9245 27.3993 25.1022C26.4392 25.6711 25.4437 26.1512 24.3947 26.5423C24.9458 27.6268 25.5859 28.658 26.297 29.618C29.1949 28.7291 32.1639 27.3778 35.2058 25.1555C35.9702 17.582 33.9951 11.0039 30.0127 5.19029ZM11.948 21.1198C10.2056 21.1198 8.78335 19.5376 8.78335 17.5997C8.78335 15.6619 10.1701 14.0795 11.948 14.0795C13.708 14.0795 15.148 15.6619 15.1125 17.5997C15.1125 19.5376 13.708 21.1198 11.948 21.1198ZM23.6303 21.1198C21.8879 21.1198 20.4638 19.5376 20.4638 17.5997C20.4638 15.6619 21.8523 14.0795 23.6303 14.0795C25.3903 14.0795 26.8304 15.6619 26.7948 17.5997C26.7948 19.5376 25.4081 21.1198 23.6303 21.1198Z" fill="#5865F2"/>
<path d="M47.5273 8.53223H55.0851C56.8985 8.53223 58.4452 8.81664 59.7075 9.38558C60.9697 9.95452 61.912 10.7368 62.5343 11.7501C63.1565 12.7636 63.4765 13.9191 63.4765 15.2348C63.4765 16.5148 63.1566 17.6704 62.4988 18.7193C61.8409 19.7505 60.8454 20.586 59.5119 21.1905C58.1786 21.795 56.5251 22.0973 54.5517 22.0973H47.5273V8.53223ZM54.4628 18.6482C55.6895 18.6482 56.6318 18.3459 57.2896 17.7238C57.9475 17.1193 58.2853 16.2659 58.2853 15.217C58.2853 14.2391 57.983 13.4568 57.3963 12.8702C56.8096 12.2835 55.9207 11.9813 54.7295 11.9813H52.3649V18.6482H54.4628Z" fill="#5865F2"/>
<path d="M75.2487 22.0799C74.1997 21.8132 73.2575 21.422 72.4219 20.8886V17.6707C73.0619 18.1685 73.8975 18.5597 74.9642 18.8797C76.0309 19.1997 77.0621 19.3597 78.0577 19.3597C78.5199 19.3597 78.8755 19.3064 79.1066 19.1819C79.3377 19.0575 79.4622 18.9152 79.4622 18.7374C79.4622 18.5419 79.3911 18.3819 79.2666 18.2574C79.1421 18.1329 78.8932 18.0263 78.5199 17.9196L76.1909 17.4041C74.8575 17.1019 73.9152 16.6574 73.3463 16.124C72.7775 15.5906 72.5108 14.8618 72.5108 13.9728C72.5108 13.2261 72.7597 12.5683 73.2396 12.0172C73.7374 11.466 74.4308 11.0393 75.3376 10.7371C76.2442 10.4349 77.2932 10.2749 78.5199 10.2749C79.6044 10.2749 80.5999 10.3816 81.5067 10.6305C82.4133 10.8615 83.1601 11.1638 83.7468 11.5193V14.5595C83.1423 14.2039 82.4312 13.9195 81.6489 13.7061C80.8489 13.4927 80.0311 13.3861 79.1955 13.3861C77.9865 13.3861 77.3821 13.5994 77.3821 14.0084C77.3821 14.2039 77.471 14.3462 77.6666 14.4528C77.8621 14.5595 78.1998 14.6484 78.6977 14.7551L80.6355 15.1107C81.8978 15.3239 82.84 15.7151 83.4623 16.2662C84.0846 16.8174 84.3868 17.6173 84.3868 18.7019C84.3868 19.8753 83.8712 20.8175 82.84 21.4931C81.8089 22.1865 80.351 22.5242 78.4665 22.5242C77.3643 22.4887 76.2976 22.3464 75.2487 22.0799Z" fill="#5865F2"/>
<path d="M89.1862 21.6716C88.0838 21.1205 87.2305 20.3916 86.6794 19.4671C86.1104 18.5426 85.8438 17.4937 85.8438 16.3202C85.8438 15.1647 86.1282 14.1157 86.7149 13.2091C87.3017 12.2846 88.155 11.5734 89.2751 11.0401C90.3951 10.5245 91.7463 10.2578 93.3108 10.2578C95.2486 10.2578 96.8487 10.6667 98.1287 11.4845V15.0225C97.6843 14.7202 97.151 14.4535 96.5465 14.2757C95.942 14.0802 95.3019 13.9913 94.6264 13.9913C93.4174 13.9913 92.493 14.2046 91.7996 14.6491C91.124 15.0936 90.7862 15.6625 90.7862 16.3736C90.7862 17.067 91.1062 17.6359 91.7818 18.0804C92.4396 18.5248 93.3997 18.7559 94.6442 18.7559C95.2842 18.7559 95.9242 18.667 96.5465 18.4714C97.1688 18.2759 97.7198 18.0626 98.1643 17.7782V21.2094C96.742 22.0628 95.0886 22.4895 93.2219 22.4895C91.6396 22.4895 90.3062 22.205 89.1862 21.6716Z" fill="#5865F2"/>
<path d="M103.199 21.6716C102.079 21.1205 101.226 20.3916 100.639 19.4493C100.052 18.507 99.75 17.4581 99.75 16.2847C99.75 15.1291 100.052 14.0802 100.639 13.1735C101.226 12.2668 102.079 11.5556 103.181 11.0401C104.284 10.5245 105.617 10.2578 107.148 10.2578C108.677 10.2578 110.01 10.5067 111.112 11.0401C112.215 11.5556 113.068 12.2668 113.655 13.1735C114.241 14.0802 114.526 15.1114 114.526 16.2847C114.526 17.4404 114.241 18.507 113.655 19.4493C113.068 20.3916 112.232 21.1382 111.112 21.6716C109.992 22.205 108.677 22.4895 107.148 22.4895C105.635 22.4895 104.319 22.205 103.199 21.6716ZM109.085 18.2403C109.548 17.7782 109.797 17.1381 109.797 16.3736C109.797 15.5914 109.565 14.9869 109.085 14.5246C108.606 14.0624 107.965 13.8312 107.165 13.8312C106.33 13.8312 105.688 14.0624 105.208 14.5246C104.746 14.9869 104.497 15.5914 104.497 16.3736C104.497 17.1559 104.728 17.7782 105.208 18.2403C105.688 18.7204 106.33 18.9515 107.165 18.9515C107.965 18.9337 108.623 18.7026 109.085 18.2403Z" fill="#5865F2"/>
<path d="M126.421 10.9685V15.1465C125.923 14.8265 125.283 14.6665 124.5 14.6665C123.469 14.6665 122.668 14.9865 122.118 15.6087C121.566 16.231 121.282 17.2088 121.282 18.5244V22.0802H116.535V10.7729H121.193V14.382C121.442 13.0664 121.869 12.0886 122.438 11.4663C123.007 10.844 123.754 10.5063 124.66 10.5063C125.335 10.5063 125.923 10.6664 126.421 10.9685Z" fill="#5865F2"/>
<path d="M142.422 8.14111V22.0972H137.676V19.5549C137.266 20.515 136.662 21.2439 135.844 21.7416C135.025 22.2395 134.011 22.4884 132.802 22.4884C131.735 22.4884 130.794 22.2217 129.993 21.7061C129.193 21.1906 128.572 20.4616 128.145 19.5549C127.718 18.6305 127.505 17.5993 127.505 16.4615C127.487 15.2703 127.718 14.2036 128.198 13.2613C128.66 12.3191 129.336 11.5902 130.189 11.0568C131.042 10.5234 132.02 10.2567 133.122 10.2567C135.381 10.2567 136.894 11.2346 137.676 13.208V8.14111H142.422ZM136.965 18.1504C137.444 17.6882 137.693 17.0659 137.693 16.3193C137.693 15.5903 137.463 15.0036 136.982 14.5592C136.502 14.1147 135.862 13.8836 135.061 13.8836C134.26 13.8836 133.62 14.1147 133.14 14.577C132.66 15.0391 132.429 15.6259 132.429 16.3726C132.429 17.1192 132.66 17.7059 133.14 18.1682C133.62 18.6305 134.243 18.8616 135.042 18.8616C135.844 18.8616 136.484 18.6305 136.965 18.1504Z" fill="#5865F2"/>
<path d="M67.8501 11.449C69.2136 11.449 70.3214 10.4539 70.3214 9.22671C70.3214 7.99928 69.2136 7.00439 67.8501 7.00439C66.4847 7.00439 65.3789 7.99928 65.3789 9.22671C65.3789 10.4539 66.4847 11.449 67.8501 11.449Z" fill="#5865F2"/>
<path d="M70.3214 12.9766C68.8101 13.6343 66.9256 13.6521 65.3789 12.9766V22.0969H70.3214V12.9766Z" fill="#5865F2"/>
</g>
<defs>
<clipPath id="clip0_100_16707">
<rect width="142" height="36" fill="white" transform="translate(0.1875 0.214844)"/>
</clipPath>
</defs>
</svg>
