<svg width="120" height="24" viewBox="0 0 120 24" fill="none" xmlns="http://www.w3.org/2000/svg">
<g clip-path="url(#clip0_100_16725)">
<path d="M10.0987 3.84368C8.70565 3.84368 8.28772 4.45664 8.28772 5.82185V8.07864H12.0212L11.659 11.7564H8.28772V22.8731H3.80202V11.7564H0.792969V8.1065H3.80202V5.90544C3.80202 2.17199 5.30654 0.22168 9.45791 0.22168C10.3216 0.22168 11.2132 0.277403 12.0769 0.388849V3.84368" fill="#004F9D"/>
<path d="M12.3286 15.016C12.3286 10.8925 14.279 7.77197 18.4025 7.77197C20.6314 7.77197 21.9966 8.9143 22.6653 10.3631V8.10631H26.956V22.9008H22.6374V20.6719C22.0245 22.0928 20.6035 23.2073 18.3746 23.2073C14.279 23.2073 12.3008 20.1146 12.3008 15.9633M16.8144 16.019C16.8144 18.2201 17.6223 19.6967 19.712 19.6967C21.5508 19.6967 22.4702 18.3594 22.4702 16.2419V14.7374C22.4702 12.6199 21.523 11.2825 19.712 11.2825C17.6223 11.2825 16.8144 12.7313 16.8144 14.9603V16.019Z" fill="#004F9D"/>
<path d="M36.2591 7.77197C37.9865 7.77197 39.6582 8.13417 40.5497 8.77499L39.5467 11.9512C38.6273 11.5054 37.5964 11.2825 36.5655 11.2825C34.1416 11.2825 33.0828 12.6756 33.0828 15.0717V15.9354C33.0828 18.3315 34.1416 19.7246 36.5655 19.7246C37.5964 19.7246 38.6273 19.4738 39.5467 19.028L40.5497 22.2043C39.6582 22.8172 38.0143 23.2073 36.2591 23.2073C30.9932 23.2073 28.625 20.3933 28.625 15.8518V15.1553C28.625 10.6139 30.9932 7.77197 36.2591 7.77197Z" fill="#004F9D"/>
<path d="M41.1367 16.0469V14.7374C41.1367 10.5303 43.5328 7.77197 48.4086 7.77197C53.0057 7.77197 55.0396 10.5581 55.0396 14.6816V17.0499H45.6224C45.706 19.0838 46.6254 19.9753 49.1051 19.9753C50.7211 19.9753 52.3371 19.6689 53.8694 19.0838L54.6774 22.1485C53.5072 22.7615 51.0833 23.2351 48.938 23.2351C43.2542 23.2073 41.1367 20.3933 41.1367 16.0469ZM45.6224 14.0965H51.0276V13.7343C51.0276 12.1184 50.3868 10.8367 48.4086 10.8367C46.4025 10.8367 45.6224 12.1184 45.6224 14.0965Z" fill="#004F9D"/>
<path d="M71.645 15.9629C71.645 20.0864 69.6668 23.2069 65.5433 23.2069C63.3144 23.2069 61.7542 22.0925 61.1412 20.6715V22.9004H56.9062V0.666917L61.392 0.276855V10.1677C62.0328 8.85821 63.4816 7.79947 65.5712 7.79947C69.6668 7.79947 71.6729 10.8921 71.6729 15.0435M67.1593 14.932C67.1593 12.8424 66.3513 11.2822 64.206 11.2822C62.3671 11.2822 61.392 12.5917 61.392 14.7091V16.2694C61.392 18.3869 62.395 19.6964 64.206 19.6964C66.3513 19.6964 67.1593 18.1361 67.1593 16.0465V14.932Z" fill="#004F9D"/>
<path d="M73.1211 15.8518V15.0996C73.1211 10.8367 75.545 7.77197 80.4765 7.77197C85.408 7.77197 87.832 10.8367 87.832 15.0996V15.8518C87.832 20.1146 85.408 23.1794 80.4765 23.1794C75.545 23.1794 73.1211 20.1425 73.1211 15.8518ZM83.3741 14.7931C83.3741 12.8428 82.5662 11.2825 80.4765 11.2825C78.3869 11.2825 77.5789 12.8428 77.5789 14.7931V16.1862C77.5789 18.1365 78.3869 19.6967 80.4765 19.6967C82.5662 19.6967 83.3741 18.1365 83.3741 16.1862V14.7931Z" fill="#004F9D"/>
<path d="M89.3633 15.8518V15.0996C89.3633 10.8367 91.7872 7.77197 96.7187 7.77197C101.65 7.77197 104.074 10.8367 104.074 15.0996V15.8518C104.074 20.1146 101.65 23.1794 96.7187 23.1794C91.7872 23.1794 89.3633 20.1425 89.3633 15.8518ZM99.6163 14.7931C99.6163 12.8428 98.8083 11.2825 96.7187 11.2825C94.6291 11.2825 93.8211 12.8428 93.8211 14.7931V16.1862C93.8211 18.1365 94.6291 19.6967 96.7187 19.6967C98.8083 19.6967 99.6163 18.1365 99.6163 16.1862V14.7931Z" fill="#004F9D"/>
<path d="M110.235 15.155L114.665 8.07812H119.402L114.777 15.4057L119.597 22.9005H114.832L110.235 15.6565V22.9005H105.777V0.666947L110.235 0.249023" fill="#004F9D"/>
</g>
<defs>
<clipPath id="clip0_100_16725">
<rect width="118.802" height="23" fill="white" transform="translate(0.792969 0.214844)"/>
</clipPath>
</defs>
</svg>
