<svg width="117" height="40" viewBox="0 0 117 40" fill="none" xmlns="http://www.w3.org/2000/svg">
<g clip-path="url(#clip0_100_16735)">
<path d="M11.3577 0.3174C10.5862 0.612375 9.31552 2.2007 8.56674 3.76634C7.54567 5.94462 7.09187 7.8733 7.09187 10.097C7.09187 11.708 7.18263 12.2299 7.70451 13.3871C8.04486 14.1132 8.58943 15.0208 8.92979 15.3838C9.70126 16.2007 11.1308 16.8587 12.1064 16.8814C12.7191 16.8814 12.8325 16.9721 12.8325 17.4486C12.8325 17.7663 12.6283 18.5151 12.4014 19.1504C11.403 21.7598 9.38359 23.2347 6.72882 23.2347C4.84552 23.2347 3.4841 22.622 2.98491 21.5556C2.37227 20.2622 2.50841 19.4681 3.55217 18.1974C4.25557 17.3806 4.52785 16.836 4.61861 16.0872C4.70938 15.1796 4.664 15.0435 4.1875 14.8846C2.89415 14.4081 1.28313 15.6107 0.783941 17.3806C0.647798 17.9251 0.579727 18.9462 0.647798 19.6723C0.988154 23.3935 3.77907 25.2995 8.40791 24.9818C10.9492 24.8003 12.2653 24.3011 13.6494 22.8943C15.1016 21.4648 15.7142 19.8538 16.0092 16.9041C16.2588 14.4081 16.3042 4.85548 16.0999 2.29146C15.9411 0.566994 15.9411 0.544304 15.2377 0.453543C13.6267 0.203948 11.7888 0.135877 11.3577 0.3174ZM12.7645 3.53943C12.9006 3.72096 12.946 5.94461 12.8779 9.09858C12.7872 13.9997 12.7418 14.3854 12.356 14.4989C11.6073 14.7485 10.6996 14.1132 10.1097 12.9106C9.58781 11.8895 9.54243 11.5038 9.54243 9.0532C9.54243 6.10345 9.79202 5.037 10.7223 3.94786C11.3123 3.22177 12.356 3.01756 12.7645 3.53943ZM40.1971 0.930041C40.1291 1.11156 40.061 1.79228 40.061 2.42761C40.061 3.08563 39.9929 4.28822 39.9022 5.12776L39.766 6.67071H38.7223C37.7012 6.67071 36.0448 6.98837 35.8179 7.19259C35.7725 7.26066 35.8179 7.51025 35.954 7.75985C36.1809 8.16827 36.6574 8.3498 39.108 8.84898L39.6072 8.93974L39.5618 14.3401C39.4937 19.0597 39.5391 19.8992 39.9248 21.1245C40.6509 23.5297 42.3073 24.9818 43.9864 24.6642C44.826 24.5053 45.9378 23.3028 46.6866 21.7598C47.0269 21.011 47.3219 20.6026 47.3219 20.8522C47.3219 21.601 48.3884 23.6204 48.9556 24.0062C49.2506 24.2104 50.0448 24.46 50.7028 24.5961C52.6541 24.9592 53.7887 24.1423 54.9459 21.5102L55.3089 20.6253L55.5131 21.2833C55.7627 22.1909 56.988 23.3935 57.8049 23.5524C58.6898 23.7339 59.8697 23.212 60.4823 22.3725L61.0042 21.6691L61.4807 22.622C62.116 23.8473 62.7967 24.3238 64.4305 24.6188C65.633 24.823 65.8373 24.823 66.3591 24.4146C66.6768 24.1877 67.2214 23.4843 67.5617 22.8716L68.1971 21.7598V24.46L66.518 26.1164C64.6574 27.9316 63.2959 30.3141 62.6379 32.8781C61.5261 37.2573 62.9329 39.186 67.2668 39.2087C69.1274 39.2314 69.1501 39.2314 69.7854 38.4826C70.8518 37.212 71.0107 36.259 71.1468 30.4956L71.2603 25.1634H71.9864C72.3948 25.1634 72.8486 25.0272 73.0074 24.8684C73.257 24.6188 73.2116 24.4827 72.7578 24.1196C72.4629 23.8927 71.9637 23.6885 71.646 23.6885H71.0787L71.1922 19.99C71.283 17.1537 71.3964 16.1326 71.6914 15.5653L72.0771 14.8166L71.3283 14.5216L70.5795 14.2039V12.1618C70.5795 10.2104 70.5342 10.0743 69.9442 9.43893C69.6039 9.07589 68.8778 8.66746 68.3559 8.50863C67.834 8.37249 66.9264 8.03213 66.3364 7.75985C65.0885 7.19259 64.4305 7.30604 63.3413 8.25903C61.7984 9.62046 61.0269 12.2979 60.7319 17.2217C60.5504 20.3757 60.21 21.4875 59.3478 21.7598C58.7125 21.964 58.2814 21.5556 57.9864 20.5345C57.6914 19.4227 57.6914 16.8587 58.0318 15.588C58.2814 14.5897 58.2587 14.5216 57.7141 14.0678C57.1922 13.6367 57.1242 13.3871 57.0334 11.708C56.8973 9.32548 56.5569 8.84898 54.4467 7.98675C50.2263 6.26228 48.1161 8.16827 47.3219 14.4762C47.2085 15.4519 47.0042 16.3822 46.8908 16.5183C46.7773 16.6545 46.5051 17.4713 46.3235 18.3109C45.8697 20.2169 45.2344 21.5329 44.4629 22.0094C43.9184 22.3725 43.873 22.3725 43.4419 21.9413C42.7611 21.2606 42.5569 19.1277 42.6931 14.3854C42.8519 8.44056 42.7611 8.78091 44.2814 8.5767C44.9848 8.50863 46.2101 8.41787 47.0042 8.41787C48.5699 8.39518 48.7968 8.19096 48.0026 7.46487C47.6396 7.14721 47.0269 7.01106 45.3252 6.9203L43.1242 6.78416L43.1696 5.19583C43.1923 4.31091 43.283 3.10832 43.3511 2.51837C43.4872 1.45192 43.4645 1.42923 42.7385 1.13425C41.4678 0.635066 40.3333 0.521614 40.1971 0.930041ZM67.4483 10.3919C68.0382 10.9138 68.0836 11.05 68.0609 12.6156C68.0155 15.6788 67.4256 19.1277 66.6768 20.6253C66.1549 21.6691 65.2246 22.554 64.6347 22.554C64.3397 22.554 63.954 22.3044 63.7271 21.9413C63.1144 21.0337 63.1371 15.0435 63.7497 13.2509C64.3397 11.4811 64.975 10.5281 65.7919 10.165C66.7222 9.7566 66.7222 9.7566 67.4483 10.3919ZM54.3105 10.8684C54.9232 11.6626 55.1501 13.319 54.719 13.977C54.5374 14.272 54.2879 15.588 54.1517 16.9268C53.8114 19.9673 53.3575 21.5556 52.5407 22.3725C51.5877 23.3028 50.7935 23.2347 50.3397 22.1455C49.4548 20.0807 49.8179 14.1132 50.9751 11.8668C51.7919 10.2558 53.4483 9.7566 54.3105 10.8684ZM67.9702 33.7403C67.5617 36.3724 66.586 37.7338 65.3381 37.4389C64.1582 37.1439 63.7951 35.011 64.4531 32.4243C64.9523 30.541 66.1549 28.0677 67.1987 26.8651L68.0836 25.8668L68.1517 29.0207C68.1744 30.7679 68.1063 32.9008 67.9702 33.7403Z" fill="black"/>
<path d="M85.0997 8.34896C83.9425 9.55155 83.2618 11.3668 82.9215 14.2712C82.6038 16.994 81.6962 20.5791 81.0608 21.7363C80.6751 22.4397 80.4255 22.6666 79.9944 22.6666C79.0868 22.6666 78.7918 21.4186 78.9279 18.0151C79.0187 15.9502 79.1775 14.725 79.5633 13.4997L80.0852 11.8206L79.586 11.4122C79.2683 11.1626 78.4968 10.9584 77.5438 10.8676C76.7043 10.7995 75.8647 10.7088 75.6832 10.6861C75.4563 10.6407 75.3429 10.3457 75.3429 9.73308C75.3202 8.43972 75.0933 8.19013 74.163 8.32627C72.7789 8.55318 72.7789 8.59856 72.8923 12.4105C72.9831 14.6342 72.915 16.4721 72.7335 17.5613C72.325 19.9664 72.3477 20.148 72.8015 20.2387C73.4142 20.3749 74.0041 18.7412 74.4806 15.5191L74.9118 12.6828H76.2505L76.1597 15.6326C76.0236 21.4186 77.2262 24.3684 79.7221 24.3684C80.7659 24.3684 81.6735 23.665 82.3315 22.3262L82.8988 21.2144L83.2618 22.1901C83.466 22.712 83.9198 23.4154 84.2602 23.733C85.009 24.4364 87.1192 24.9583 87.9814 24.618C88.7302 24.3457 89.7059 23.1431 90.3185 21.8044L90.795 20.6925L91.2261 21.6455C92.3153 24.0734 94.8112 24.2549 96.2861 22.0313L96.8987 21.101L97.0349 22.2809C97.2391 23.7784 97.4887 24.0734 98.7367 24.2776C100.711 24.5726 100.711 24.5499 101.165 21.1463C101.55 18.0831 102.14 15.5191 102.481 15.5191C102.571 15.5191 102.685 17.0394 102.73 18.9C102.798 21.827 102.866 22.3489 103.229 22.7574C104.114 23.733 106.315 23.5742 106.315 22.5304C106.315 21.7363 107.223 18.4462 107.972 16.5402L108.698 14.725L108.811 17.9016C108.902 20.7152 108.993 21.2144 109.492 22.1901C109.81 22.8254 110.331 23.5288 110.672 23.7784C111.511 24.3911 113.122 24.3911 113.939 23.7784C115.686 22.4851 117.502 16.8805 116.186 16.8805C115.777 16.8805 115.505 17.4251 115.278 18.5823C114.756 21.4867 113.009 23.1431 112.215 21.464C111.738 20.4883 111.67 16.5856 112.101 14.725C112.782 11.7752 112.805 12.0021 111.897 11.3214C111.33 10.8903 110.694 10.6407 109.968 10.5726L108.902 10.4819L108.312 11.7979C107.972 12.5467 107.223 14.5207 106.61 16.1998L105.521 19.263L105.453 15.8141L105.385 12.3425L104.727 12.0021C102.912 11.0718 101.959 11.9114 100.892 15.4284C100.484 16.7898 100.121 17.9924 100.075 18.1285C100.03 18.242 99.9846 16.404 99.9846 13.9989C99.9619 11.2987 99.8712 9.59693 99.735 9.50617C99.5989 9.41541 98.9409 9.30196 98.2828 9.23389L97.0576 9.09775L96.9668 13.3862C96.876 16.994 96.7853 17.9016 96.3769 19.1723C95.4919 21.827 94.3574 22.6439 93.6994 21.0783C93.3137 20.148 93.2683 16.7217 93.6313 15.4057C93.8582 14.5888 93.8355 14.4754 93.3137 14.0442C92.8372 13.6585 92.7464 13.3182 92.6103 11.7979C92.4287 9.77846 92.0884 8.91622 91.2942 8.57587C88.9117 7.46404 88.5033 7.35059 87.3234 7.35059C86.0981 7.35059 85.9847 7.39597 85.0997 8.34896ZM89.5244 10.5272C90.2731 10.9357 90.7723 13.4997 90.2051 14.0669C90.0916 14.1804 89.8647 15.3603 89.7513 16.6536C89.4336 19.7395 88.9344 21.4867 88.1402 22.3489C87.3007 23.2339 86.3704 23.1885 85.9166 22.2355C85.1451 20.6018 85.1905 15.9956 86.0073 13.1593C86.6881 10.8676 88.1176 9.77846 89.5244 10.5272ZM18.8665 9.12044C18.685 9.4381 18.2085 20.1933 18.3219 21.464C18.4808 22.9616 18.98 23.4608 20.296 23.4608C20.8633 23.4608 21.4532 23.37 21.5894 23.2792C21.7482 23.1885 22.0205 22.2582 22.2247 21.1917C22.6558 19.0815 23.3365 16.8579 23.8357 15.9729C24.1307 15.4511 24.1534 15.6553 24.1761 18.1285C24.1761 21.1463 24.4937 22.1901 25.5375 22.7347C26.2863 23.1204 27.7158 22.9389 28.5326 22.3262C29.2133 21.827 29.2133 21.827 29.531 22.2809C30.2571 23.3246 33.3884 23.9373 35.5893 23.4608C37.2457 23.1204 38.2441 22.3262 38.2441 21.3279C38.2441 20.3522 37.9037 19.9211 35.5439 18.0151C33.1841 16.1091 32.7984 15.6099 32.7984 14.4981C32.7984 12.8643 34.8178 11.8887 35.9977 12.9324C36.5423 13.4316 37.0188 13.3182 37.6768 12.5467C38.1533 11.9794 38.2441 11.6391 38.1987 10.8903C38.1306 10.1188 38.0172 9.9146 37.4499 9.64231C36.1793 9.02967 32.0269 10.1415 30.5521 11.5029C29.3722 12.5921 29.0999 14.2712 29.8487 15.7233C30.189 16.4267 30.2344 16.631 29.9848 16.7217C29.826 16.7898 29.6217 17.289 29.531 17.8109C29.1679 20.1026 27.9654 21.6682 27.1485 20.8741C26.8535 20.5564 26.7855 19.8757 26.7401 16.7898C26.7174 13.9535 26.6266 12.9097 26.3543 12.3879C25.9686 11.6391 25.0837 11.2987 24.403 11.6618C23.8357 11.9567 22.9281 13.5224 22.1112 15.5872L21.4759 17.2209L21.4532 13.5451C21.4532 9.98267 21.4305 9.84653 20.954 9.52886C20.2506 9.09774 19.0253 8.87084 18.8665 9.12044ZM34.0464 19.8984C34.5909 20.3749 35.0674 20.9421 35.1355 21.1917C35.4759 22.4624 33.6153 22.8254 32.1631 21.759C31.6866 21.4186 31.0512 20.9648 30.6882 20.7606C30.3025 20.5337 30.1209 20.2841 30.2117 20.0572C30.2798 19.8757 30.4613 19.1496 30.5974 18.4462L30.847 17.1528L31.9815 18.1058C32.5942 18.605 33.5245 19.4219 34.0464 19.8984Z" fill="black"/>
</g>
<defs>
<clipPath id="clip0_100_16735">
<rect width="116.071" height="39" fill="white" transform="translate(0.59375 0.214844)"/>
</clipPath>
</defs>
</svg>
