<svg width="101" height="26" viewBox="0 0 101 26" fill="none" xmlns="http://www.w3.org/2000/svg">
<g clip-path="url(#clip0_100_16740)">
<path fill-rule="evenodd" clip-rule="evenodd" d="M99.1268 0.214355H77.822C76.803 0.214355 75.9375 1.02031 75.9375 2.01316V23.4144C75.9375 24.4084 76.5054 25.2144 77.5244 25.2144H98.8292C99.8494 25.2144 100.938 24.4084 100.938 23.4144V2.01316C100.938 1.02031 100.147 0.214355 99.1268 0.214355ZM85.4613 9.73816H88.8268V11.4536H88.8637C89.3768 10.5286 90.8923 9.58936 92.7661 9.58936C96.3625 9.58936 97.3661 11.4989 97.3661 15.0358V21.6429H93.7946V15.687C93.7946 14.1036 93.1625 12.7144 91.6839 12.7144C89.8887 12.7144 89.0327 13.9298 89.0327 15.9251V21.6429H85.4613V9.73816ZM79.5089 21.6429H83.0804V9.73816H79.5089V21.6429ZM83.5268 5.5715C83.5268 6.80483 82.528 7.80364 81.2946 7.80364C80.0613 7.80364 79.0625 6.80483 79.0625 5.5715C79.0625 4.33816 80.0613 3.33936 81.2946 3.33936C82.528 3.33936 83.5268 4.33816 83.5268 5.5715Z" fill="#0A66C2"/>
<path d="M72.3675 21.6433H69.0342V20.2254H68.9985C68.2568 21.0849 66.9687 21.7921 64.7854 21.7921C61.8092 21.7921 59.2461 19.5528 59.2461 15.704C59.2461 12.0373 61.7723 9.5897 64.8973 9.5897C66.8318 9.5897 68.033 10.2778 68.7604 11.1564H68.7961V3.78613H72.3675V21.6433ZM65.7949 12.2683C63.7532 12.2683 62.6056 13.7242 62.6056 15.6599C62.6056 17.5968 63.7532 19.1135 65.7949 19.1135C67.839 19.1135 69.0342 17.6361 69.0342 15.6599C69.0342 13.629 67.839 12.2683 65.7949 12.2683Z" fill="#0A66C2"/>
<path d="M57.677 19.7251C56.8341 20.8167 55.0984 21.7917 52.296 21.7917C48.5567 21.7917 46.1758 19.3167 46.1758 15.4263C46.1758 11.9703 48.3329 9.58936 52.4008 9.58936C55.9139 9.58936 58.0805 11.8965 58.0805 15.9548C58.0805 16.3608 58.0151 16.762 58.0151 16.762H49.546L49.5663 17.1298C49.8008 18.156 50.5758 19.4108 52.3544 19.4108C53.9067 19.4108 54.971 18.5763 55.452 17.9227L57.677 19.7251ZM54.6436 14.5001C54.6674 13.2441 53.746 11.9703 52.2936 11.9703C50.5651 11.9703 49.6424 13.3203 49.546 14.5001H54.6436Z" fill="#0A66C2"/>
<path d="M46.1743 9.73851H42.0076L37.841 14.5004V3.78613H34.2695V21.6433H37.841V15.6909L42.2445 21.6433H46.4612L41.4124 15.1349L46.1743 9.73851Z" fill="#0A66C2"/>
<path d="M19.9844 9.73816H23.3499V11.4536H23.3868C23.8999 10.5286 25.4153 9.58936 27.2891 9.58936C30.8856 9.58936 31.8891 11.8715 31.8891 15.0358V21.6429H28.3177V15.687C28.3177 13.9346 27.6856 12.7144 26.207 12.7144C24.4118 12.7144 23.5558 14.1358 23.5558 15.9251V21.6429H19.9844V9.73816Z" fill="#0A66C2"/>
<path d="M14.0329 21.6435H17.6044V9.73872H14.0329V21.6435ZM15.8198 7.71491C17.0032 7.71491 17.9615 6.75539 17.9615 5.57206C17.9615 4.38872 17.0032 3.4292 15.8198 3.4292C14.6377 3.4292 13.6758 4.38872 13.6758 5.57206C13.6758 6.75539 14.6377 7.71491 15.8198 7.71491Z" fill="#0A66C2"/>
<path d="M4.50893 3.78613H0.9375V21.6433H11.6518V18.0718H4.50893V3.78613Z" fill="#0A66C2"/>
</g>
<defs>
<clipPath id="clip0_100_16740">
<rect width="100" height="25" fill="white" transform="translate(0.9375 0.214844)"/>
</clipPath>
</defs>
</svg>
