<svg width="163" height="33" viewBox="0 0 163 33" fill="none" xmlns="http://www.w3.org/2000/svg">
<g clip-path="url(#clip0_100_16738)">
<path d="M82.3967 20.6476C82.3967 21.0524 82.3967 21.1444 82.6696 21.3928L84.1984 22.9016V22.966H77.4201V20.068C76.7378 21.978 74.9334 23.2411 72.9254 23.2144C69.4407 23.2144 66.9113 20.4544 66.9113 15.3761C66.9113 10.6197 69.6407 7.4457 73.4712 7.4457C75.1692 7.33776 76.7495 8.32675 77.4109 9.91129V3.51763C77.4358 3.3728 77.42 3.22393 77.3654 3.08753C77.3108 2.95112 77.2194 2.8325 77.1015 2.74483L75.6458 1.32804V1.26364L82.3967 0.463243V20.6476ZM77.4201 19.7276V10.1873C77.1793 9.88361 76.8719 9.63938 76.5217 9.47347C76.1714 9.30756 75.7877 9.22443 75.4001 9.2305C73.7534 9.2305 72.1611 10.7393 72.1611 15.2197C72.1611 19.4148 73.535 20.896 75.2456 20.896C75.6744 20.8864 76.0949 20.7756 76.4728 20.5725C76.8507 20.3695 77.1755 20.08 77.4201 19.7276ZM86.8915 22.966V10.0861C86.913 9.94477 86.8993 9.80034 86.8517 9.66556C86.8041 9.53077 86.724 9.40979 86.6186 9.3133L85.1171 7.7493V7.6849H91.8957V20.7488C91.8957 21.1536 91.8957 21.2456 92.1686 21.494L93.6608 22.9108V22.9752L86.8915 22.966ZM86.6459 2.97452C86.6459 1.4504 87.8679 0.214844 89.3752 0.214844C90.8824 0.214844 92.1048 1.4507 92.1048 2.97483C92.1048 4.49896 90.8828 5.73482 89.3755 5.73482C87.8682 5.73482 86.6459 4.49896 86.6459 2.97483V2.97452ZM110.183 20.62C110.183 21.0248 110.183 21.1444 110.456 21.3928L111.985 22.9016V22.966H105.17V19.6632C104.55 21.7516 102.659 23.1899 100.503 23.2144C97.4822 23.2144 95.8627 20.988 95.8627 16.7745C95.8627 14.7413 95.8627 12.5149 95.9262 10.0125C95.9508 9.87524 95.9385 9.7339 95.8906 9.60295C95.8426 9.47201 95.7607 9.35616 95.6532 9.26729L94.1521 7.7493V7.6849H100.876V16.0845C100.876 18.8444 101.276 20.6844 102.987 20.6844C103.44 20.6549 103.879 20.5123 104.264 20.2697C104.649 20.027 104.966 19.6921 105.188 19.2952V10.0953C105.21 9.95397 105.196 9.80954 105.149 9.67476C105.101 9.53997 105.021 9.41899 104.915 9.32249L103.405 7.7493V7.6849H110.183V20.62ZM133.257 22.966C133.257 22.4692 133.348 16.1397 133.348 14.6861C133.348 11.9261 132.92 10.0217 131.001 10.0217C130.523 10.0374 130.056 10.1655 129.637 10.3957C129.218 10.6259 128.859 10.9516 128.59 11.3465C128.782 12.2067 128.874 13.0868 128.863 13.9685C128.863 15.8821 128.799 18.3201 128.772 20.758C128.747 20.8953 128.759 21.0366 128.807 21.1676C128.855 21.2985 128.937 21.4144 129.044 21.5032L130.573 22.92V22.9844H123.731C123.731 22.5244 123.822 16.1581 123.822 14.7045C123.822 11.8985 123.394 10.0401 121.502 10.0401C121.041 10.0577 120.593 10.1918 120.198 10.43C119.804 10.6681 119.476 11.0024 119.246 11.4017V20.7856C119.246 21.1904 119.246 21.2824 119.519 21.5308L121.011 22.9476V23.012H114.241V10.1321C114.263 9.99077 114.249 9.84634 114.202 9.71155C114.154 9.57677 114.074 9.45579 113.969 9.35929L112.467 7.7493V7.6849H119.246V10.9601C119.874 8.7981 121.877 7.34512 124.104 7.4365C126.361 7.4365 127.889 8.7061 128.535 11.1165C129.253 8.89347 131.318 7.40185 133.63 7.4365C136.651 7.4365 138.361 9.69049 138.361 13.9501C138.361 15.9833 138.298 18.3017 138.271 20.7396C138.244 20.8804 138.26 21.0258 138.315 21.1581C138.369 21.2904 138.461 21.4039 138.58 21.4848L140.072 22.9016V22.966H133.257ZM48.1048 20.9604L50.1156 22.9016V22.966H39.9162V22.9016L41.9635 20.9604C42.071 20.8716 42.1529 20.7557 42.2008 20.6248C42.2488 20.4938 42.2611 20.3525 42.2364 20.2152V7.8045C42.2364 7.2801 42.2364 6.57171 42.3272 5.96451L35.4487 23.2147H35.3671L28.243 7.34481C28.0881 6.94921 28.0427 6.92161 27.9425 6.65481V17.06C27.8572 17.756 27.9742 18.4619 28.2795 19.0932L31.1453 22.9019V22.9663H23.5391V22.9019L26.4052 19.084C26.708 18.4552 26.8247 17.7529 26.7416 17.06V5.56002C26.7885 4.9947 26.6195 4.43258 26.2687 3.98683L24.2398 1.32804V1.26364H31.5185L37.6144 14.7048L42.9826 1.26364H50.1064V1.32804L48.1048 3.58203C47.9869 3.6697 47.8955 3.78831 47.8409 3.92472C47.7863 4.06113 47.7705 4.21 47.7954 4.35482V20.2156C47.7693 20.3564 47.7847 20.5018 47.8397 20.6341C47.8946 20.7664 47.9869 20.8799 48.1051 20.9607L48.1048 20.9604ZM56.0842 14.7413V14.8057C56.0842 18.7432 58.095 20.3256 60.4514 20.3256C62.419 20.3934 64.2403 19.2778 65.0916 17.4829H65.1554C64.3366 21.3744 61.9526 23.2144 58.386 23.2144C54.5374 23.2144 50.9071 20.8684 50.9071 15.4313C50.9071 9.71809 54.5466 7.4365 58.5679 7.4365C61.8072 7.4365 65.2553 8.9821 65.2553 13.9501V14.7413H56.0842ZM56.0842 13.9501H60.5698V13.1497C60.5698 9.1017 59.7418 8.0253 58.4952 8.0253C56.9849 8.0253 56.0661 9.63529 56.0661 13.9501H56.0842Z" fill="#1C1B1A"/>
</g>
<defs>
<clipPath id="clip0_100_16738">
<rect width="162.272" height="32" fill="white" transform="translate(0.667969 0.214844)"/>
</clipPath>
</defs>
</svg>
