<svg width="32" height="33" viewBox="0 0 32 33" fill="none" xmlns="http://www.w3.org/2000/svg">
<g clip-path="url(#clip0_100_16702)">
<path d="M16 32.2148C24.8365 32.2148 32 25.0514 32 16.2148C32 7.3783 24.8365 0.214844 16 0.214844C7.16346 0.214844 0 7.3783 0 16.2148C0 25.0514 7.16346 32.2148 16 32.2148Z" fill="#34AADF"/>
<path d="M6.65974 16.076C6.65974 16.076 14.6597 12.7928 17.4343 11.6367C18.4979 11.1743 22.1048 9.69453 22.1048 9.69453C22.1048 9.69453 23.7696 9.04717 23.6308 10.6194C23.5845 11.2668 23.2146 13.5327 22.8447 15.9835C22.2898 19.4518 21.6886 23.2436 21.6886 23.2436C21.6886 23.2436 21.5961 24.3073 20.81 24.4922C20.0239 24.6772 18.7291 23.8449 18.4979 23.6598C18.3129 23.5211 15.0297 21.4402 13.8274 20.4228C13.5036 20.1454 13.1337 19.5905 13.8736 18.9431C15.5383 17.4171 17.5267 15.5211 18.7291 14.3188C19.284 13.7639 19.8389 12.4691 17.5267 14.0413C14.2435 16.3073 11.0066 18.4344 11.0066 18.4344C11.0066 18.4344 10.2667 18.8968 8.87939 18.4806C7.49206 18.0645 5.87356 17.5096 5.87356 17.5096C5.87356 17.5096 4.7638 16.8159 6.65974 16.076Z" fill="white"/>
</g>
<defs>
<clipPath id="clip0_100_16702">
<rect width="32" height="32" fill="white" transform="translate(0 0.214844)"/>
</clipPath>
</defs>
</svg>
