<svg width="112" height="26" viewBox="0 0 112 26" fill="none" xmlns="http://www.w3.org/2000/svg">
<g clip-path="url(#clip0_100_16718)">
<path fill-rule="evenodd" clip-rule="evenodd" d="M35.0399 4.14747C34.6323 2.61854 33.4261 1.41255 31.8916 0.999183C29.1171 0.257324 17.9846 0.257324 17.9846 0.257324C17.9846 0.257324 6.85794 0.257324 4.07765 0.999183C2.54886 1.40684 1.34272 2.61298 0.929359 4.14747C0.1875 6.92205 0.1875 12.7147 0.1875 12.7147C0.1875 12.7147 0.1875 18.5075 0.929359 21.2821C1.33702 22.811 2.54316 24.017 4.07765 24.4304C6.85794 25.1722 17.9846 25.1722 17.9846 25.1722C17.9846 25.1722 29.1171 25.1722 31.8916 24.4304C33.4206 24.0227 34.6266 22.8166 35.0399 21.2821C35.7818 18.5075 35.7818 12.7148 35.7818 12.7148C35.7818 12.7148 35.7818 6.92205 35.0399 4.14747Z" fill="#FF0000"/>
<path fill-rule="evenodd" clip-rule="evenodd" d="M14.4297 18.0544L23.6764 12.7146L14.4297 7.375V18.0544Z" fill="white"/>
<path fill-rule="evenodd" clip-rule="evenodd" d="M51.8526 22.9238C51.1504 22.4483 50.6465 21.7121 50.3521 20.71C50.0575 19.7077 49.9046 18.377 49.9046 16.7121V14.4472C49.9046 12.7655 50.0745 11.4179 50.4143 10.3984C50.754 9.37929 51.2864 8.63758 52.0054 8.17315C52.7246 7.70887 53.6703 7.47109 54.8423 7.47109C55.9975 7.47109 56.9205 7.70887 57.6169 8.18456C58.3134 8.66012 58.823 9.40197 59.1458 10.4098C59.4686 11.4179 59.6272 12.7655 59.6272 14.4415V16.7066C59.6272 18.3713 59.4686 19.7077 59.1571 20.7155C58.8457 21.7234 58.3362 22.4653 57.6283 22.9296C56.9261 23.3938 55.9691 23.6319 54.763 23.6319C53.5286 23.6373 52.5547 23.3995 51.8526 22.9238ZM55.7993 20.4778C55.9918 19.9681 56.0938 19.1357 56.0938 17.9863V13.1222C56.0938 12.001 55.9975 11.1857 55.7993 10.6647C55.6068 10.1494 55.2614 9.88894 54.7687 9.88894C54.2932 9.88894 53.959 10.1494 53.7608 10.6647C53.5683 11.1799 53.4664 12.001 53.4664 13.1222V17.9863C53.4664 19.1414 53.557 19.9738 53.7439 20.4778C53.9307 20.9874 54.2705 21.2422 54.7631 21.2422C55.2614 21.2422 55.6011 20.9874 55.7993 20.4778ZM105.912 16.7518V17.539C105.912 18.5412 105.94 19.2886 106.003 19.7925C106.059 20.2909 106.184 20.6589 106.371 20.8856C106.558 21.1119 106.846 21.2309 107.237 21.2309C107.764 21.2309 108.126 21.0271 108.319 20.6193C108.511 20.2116 108.619 19.5321 108.636 18.5808L111.665 18.7564C111.682 18.8922 111.688 19.0791 111.688 19.3168C111.688 20.7609 111.291 21.8367 110.504 22.5501C109.717 23.2636 108.602 23.6203 107.158 23.6203C105.425 23.6203 104.213 23.0768 103.517 21.9896C102.82 20.9024 102.475 19.2263 102.475 16.9501V14.2264C102.475 11.8822 102.837 10.1776 103.556 9.0963C104.276 8.02039 105.51 7.48236 107.26 7.48236C108.466 7.48236 109.389 7.70331 110.034 8.14491C110.68 8.58651 111.133 9.2716 111.399 10.206C111.659 11.1403 111.795 12.4314 111.795 14.0735V16.7462H105.912V16.7518ZM106.359 10.1833C106.184 10.4043 106.065 10.7666 106.003 11.265C105.94 11.7632 105.912 12.5277 105.912 13.5412V14.6624H108.483V13.5412C108.483 12.5389 108.449 11.7802 108.381 11.265C108.313 10.7496 108.188 10.3816 108.013 10.1721C107.837 9.96254 107.56 9.85499 107.186 9.85499C106.812 9.84928 106.535 9.96254 106.359 10.1833ZM43.3022 16.4574L39.3047 2.02377H42.7926L44.1913 8.56398C44.548 10.1778 44.8085 11.5481 44.9784 12.6862H45.0802C45.1992 11.8707 45.4596 10.5061 45.8674 8.58651L47.3169 2.01807H50.805L46.762 16.4574V23.3826H43.3022V16.4574ZM70.969 7.77691V23.3769H68.2227L67.9169 21.4687H67.8433C67.0958 22.9126 65.9747 23.6318 64.4854 23.6318C63.4493 23.6318 62.6848 23.292 62.1923 22.6125C61.6996 21.9329 61.4561 20.8742 61.4561 19.4302V7.77691H64.9668V19.232C64.9668 19.9285 65.0405 20.4268 65.1934 20.7212C65.3463 21.0156 65.601 21.1686 65.9578 21.1686C66.2636 21.1686 66.558 21.0778 66.8354 20.8911C67.1128 20.7043 67.3224 20.4663 67.4583 20.1777V7.77676L70.969 7.77691ZM88.987 7.77691V23.3769H86.2406L85.9348 21.4687H85.8612C85.1138 22.9126 83.9927 23.6318 82.5034 23.6318C81.4673 23.6318 80.7027 23.292 80.2102 22.6125C79.7175 21.9329 79.4741 20.8742 79.4741 19.4302V7.77691H82.9848V19.232C82.9848 19.9285 83.0584 20.4268 83.2113 20.7212C83.3641 21.0156 83.619 21.1686 83.9757 21.1686C84.2815 21.1686 84.5759 21.0778 84.8533 20.8911C85.1308 20.7043 85.3403 20.4663 85.4762 20.1777V7.77676L88.987 7.77691Z" fill="#282828"/>
<path fill-rule="evenodd" clip-rule="evenodd" d="M80.5148 4.84954H77.0267V23.377H73.5896V4.84954H70.1016V2.02404H80.5091V4.84954H80.5148ZM100.611 10.274C100.396 9.28884 100.056 8.57536 99.5803 8.13376C99.1047 7.69201 98.4536 7.47121 97.621 7.47121C96.9757 7.47121 96.3754 7.65236 95.8148 8.02051C95.2542 8.3828 94.8239 8.86421 94.5181 9.45872H94.4898V1.23682H91.1036V23.3827H94.0027L94.3595 21.9048H94.4332C94.7049 22.4314 95.1126 22.8448 95.6562 23.1505C96.1998 23.4563 96.8001 23.6092 97.4625 23.6092C98.6517 23.6092 99.5236 23.0599 100.084 21.967C100.645 20.8743 100.922 19.1642 100.922 16.8369V14.368C100.928 12.624 100.82 11.2592 100.611 10.274ZM97.3889 16.6387C97.3889 17.7769 97.3436 18.6658 97.2474 19.3114C97.1567 19.957 96.9983 20.4155 96.7775 20.6874C96.5565 20.9591 96.2621 21.0951 95.8884 21.0951C95.5996 21.0951 95.3335 21.0272 95.0843 20.8912C94.8409 20.7553 94.637 20.5515 94.4841 20.2796V11.418C94.6031 10.9932 94.8069 10.6479 95.0958 10.3762C95.3844 10.1043 95.6958 9.96836 96.0356 9.96836C96.3923 9.96836 96.6698 10.1099 96.8623 10.3873C97.0549 10.6649 97.1908 11.1404 97.27 11.7973C97.3437 12.4598 97.3832 13.3998 97.3832 14.6228V16.6387H97.3889Z" fill="#282828"/>
</g>
<defs>
<clipPath id="clip0_100_16718">
<rect width="111.607" height="25" fill="white" transform="translate(0.1875 0.214844)"/>
</clipPath>
</defs>
</svg>
